<?xml version="1.0" standalone="no"?>
<!DOCTYPE svg PUBLIC "-//W3C//DTD SVG 20010904//EN"
 "http://www.w3.org/TR/2001/REC-SVG-20010904/DTD/svg10.dtd">
<svg version="1.0" xmlns="http://www.w3.org/2000/svg"
 width="1500.000000pt" height="1000.000000pt" viewBox="0 0 1500.000000 1000.000000"
 preserveAspectRatio="xMidYMid meet">
<metadata>
Created by potrace 1.16, written by Peter Selinger 2001-2019
</metadata>
<g transform="translate(0.000000,1000.000000) scale(0.100000,-0.100000)"
fill="#000000" stroke="none">
<path d="M900 8261 c0 -5 7 -28 16 -52 9 -24 38 -107 64 -184 27 -77 76 -219
110 -315 34 -96 81 -231 105 -300 24 -69 71 -204 105 -300 34 -96 68 -193 75
-215 8 -22 39 -112 70 -200 32 -88 63 -178 70 -200 7 -22 41 -119 75 -215 34
-96 66 -186 70 -200 4 -14 34 -97 65 -185 31 -88 108 -308 172 -490 63 -181
144 -413 180 -515 36 -102 96 -273 133 -380 37 -107 99 -285 138 -395 38 -110
122 -351 187 -535 132 -381 161 -462 319 -910 36 -102 81 -230 99 -285 32 -91
157 -448 194 -552 l15 -43 538 0 539 0 6 23 c4 12 20 65 37 117 17 52 61 194
98 315 66 211 134 430 205 655 46 147 167 533 230 735 30 94 95 301 145 460
51 160 98 310 105 335 7 25 49 162 95 305 97 308 170 539 240 765 98 312 162
515 179 570 10 30 29 90 42 133 13 42 27 77 31 77 4 0 11 -15 17 -32 5 -18 48
-157 96 -308 100 -316 143 -451 213 -675 28 -88 67 -212 87 -275 20 -63 61
-194 92 -290 63 -202 106 -338 158 -500 20 -63 44 -142 54 -175 10 -33 35
-112 56 -175 20 -63 43 -135 50 -160 7 -25 32 -103 55 -175 23 -71 54 -170 70
-220 15 -49 54 -171 85 -270 60 -191 92 -292 173 -550 28 -88 78 -248 112
-355 34 -107 71 -225 83 -262 l20 -68 537 0 c503 0 538 1 545 18 4 9 22 60 40
112 18 52 59 167 90 255 31 88 72 203 90 255 18 52 49 140 68 195 19 55 87
251 152 435 64 184 144 412 177 505 33 94 68 195 78 225 10 30 44 127 75 215
31 88 71 203 90 255 18 52 65 187 105 300 40 113 78 223 85 245 7 22 41 119
75 215 34 96 92 263 130 370 37 107 132 377 210 600 78 223 170 486 205 585
34 99 180 516 324 926 143 410 261 751 261 758 0 8 -199 11 -779 11 l-779 0
-12 -32 c-11 -31 -62 -179 -280 -808 -118 -341 -242 -697 -335 -965 -42 -121
-89 -258 -105 -305 -16 -47 -54 -157 -85 -245 -80 -227 -132 -377 -165 -475
-24 -71 -175 -508 -278 -802 -26 -75 -38 -92 -47 -65 -5 14 -76 246 -133 432
-22 72 -50 164 -62 205 -12 41 -27 93 -35 115 -13 36 -394 1280 -436 1420 -25
87 -49 163 -223 730 -145 468 -216 700 -235 765 l-7 25 -757 3 -756 2 -45
-142 c-103 -332 -139 -446 -151 -488 -25 -83 -52 -173 -160 -520 -60 -190
-116 -372 -126 -405 -9 -33 -40 -134 -69 -225 -28 -91 -96 -311 -151 -490 -55
-179 -123 -397 -150 -485 -129 -413 -220 -706 -234 -755 -34 -116 -61 -192
-70 -193 -5 -1 -15 14 -22 33 -42 125 -150 440 -178 520 -19 52 -58 167 -89
255 -30 88 -79 232 -109 320 -31 88 -79 228 -107 310 -28 83 -73 213 -100 290
-26 77 -74 214 -105 305 -31 91 -81 235 -110 320 -29 85 -112 326 -184 535
-72 209 -164 477 -205 595 l-74 215 -781 3 c-445 1 -781 -2 -781 -7z"/>
<path d="M10762 8207 c-11 -29 -29 -80 -40 -112 -20 -60 -174 -504 -238 -690
-57 -162 -145 -417 -159 -460 -8 -22 -39 -112 -70 -200 -30 -88 -71 -205 -89
-260 -19 -55 -66 -192 -106 -305 -39 -113 -118 -340 -175 -505 -57 -165 -135
-392 -175 -505 -120 -346 -181 -523 -195 -567 l-14 -42 1172 -4 c1150 -3 1174
-4 1292 -25 231 -42 372 -95 494 -187 130 -99 201 -220 254 -430 19 -80 22
-115 22 -315 0 -220 -1 -227 -29 -310 -161 -483 -590 -839 -1061 -880 -178
-16 -412 13 -596 74 -162 53 -361 163 -461 254 -196 177 -290 338 -319 545
l-12 87 -585 -2 -586 -3 -26 -75 c-14 -41 -53 -152 -85 -247 l-60 -172 19 -73
c129 -500 502 -973 1013 -1284 612 -373 1449 -518 2148 -373 335 69 679 217
950 408 602 424 1003 1057 1095 1726 39 284 10 725 -69 1031 -114 443 -327
793 -645 1058 -229 191 -569 358 -886 436 -47 11 -101 25 -120 30 -63 16 -282
50 -435 66 -120 13 -301 18 -897 21 l-748 5 0 524 0 524 1573 2 1572 3 0 640
0 640 -1352 3 -1352 2 -19 -53z"/>
</g>
</svg>
